<svg width="156" height="45" viewBox="0 0 156 45" fill="none" xmlns="http://www.w3.org/2000/svg">
<g clip-path="url(#clip0_1_526)">
<path d="M149.84 0H6.91992C3.60621 0 0.919922 2.68629 0.919922 6V38.53C0.919922 41.8437 3.60621 44.53 6.91992 44.53H149.84C153.154 44.53 155.84 41.8437 155.84 38.53V6C155.84 2.68629 153.154 0 149.84 0Z" fill="black"/>
<path d="M37.7263 21.8607C37.7262 20.7547 38.0306 19.67 38.6057 18.7253C39.1809 17.7806 40.005 17.0124 40.9876 16.5047C40.4399 15.6155 39.6733 14.8814 38.7615 14.3723C37.8497 13.8633 36.8229 13.5963 35.7786 13.5967H35.1985C34.5373 13.6025 33.8882 13.777 33.3133 14.1037C32.3319 14.6476 31.2283 14.933 30.1062 14.933C28.9842 14.933 27.881 14.6476 26.8997 14.1037C26.3248 13.777 25.6757 13.6025 25.0144 13.5967H24.9646C23.4317 13.595 21.9542 14.1705 20.8264 15.2087C20.8264 15.2087 13.2562 21.1177 22.2522 33.0487C22.6298 33.6296 23.1467 34.1069 23.7556 34.4374C24.3646 34.7678 25.0467 34.9408 25.7395 34.9407H25.7796C26.2378 34.9368 26.6856 34.8037 27.0716 34.5567C28.0479 33.9459 29.1762 33.622 30.3279 33.622C31.4796 33.622 32.6079 33.9459 33.5843 34.5567C33.9702 34.8036 34.418 34.9367 34.8762 34.9407H34.9163C35.5157 34.9412 36.1083 34.812 36.6531 34.5619C37.1979 34.3118 37.6822 33.9467 38.0725 33.4917C39.7022 31.7902 40.9578 29.7665 41.7586 27.5507C40.5803 27.1365 39.5597 26.3668 38.8377 25.3477C38.1156 24.3287 37.7275 23.1106 37.7273 21.8617" fill="white"/>
<path d="M35.3083 8.00574C35.3077 7.7217 35.2881 7.43805 35.2488 7.15674C34.3891 7.19868 33.5474 7.41918 32.7776 7.80418C32.0078 8.18919 31.3264 8.73027 30.7771 9.39297C30.2278 10.0557 29.8226 10.8255 29.5872 11.6534C29.3517 12.4813 29.2911 13.3492 29.4094 14.2017C31.0012 14.1246 32.5022 13.4375 33.6008 12.2831C34.6994 11.1286 35.3117 9.5954 35.3098 8.00174" fill="white"/>
<path d="M63.4829 33.45H61.23L59.9961 29.572H55.7061L54.5312 33.45H52.3379L56.5879 20.25H59.2129L63.4829 33.45ZM59.624 27.95L58.5083 24.503C58.3903 24.151 58.1683 23.322 57.8423 22.016H57.8022C57.6722 22.5773 57.4633 23.4063 57.1753 24.503L56.0752 27.95H59.624Z" fill="white"/>
<path d="M74.4111 28.5739C74.4882 29.975 74.0177 31.3512 73.0991 32.4119C72.7304 32.8171 72.2792 33.1387 71.7759 33.355C71.2726 33.5713 70.7289 33.6773 70.1812 33.6659C69.6507 33.7083 69.1185 33.6049 68.6426 33.3668C68.1667 33.1286 67.765 32.7649 67.481 32.3149H67.4409V37.3299H65.3271V27.0649C65.3271 26.0469 65.301 25.0022 65.249 23.9309H67.1089L67.2271 25.4399H67.2671C67.5876 24.9493 68.0184 24.5405 68.5249 24.2458C69.0314 23.9511 69.5997 23.7788 70.1846 23.7425C70.7694 23.7063 71.3546 23.8072 71.8936 24.0371C72.4325 24.267 72.9104 24.6197 73.2891 25.0669C74.0765 26.0611 74.4768 27.3071 74.416 28.5739M72.2607 28.6509C72.2937 27.8407 72.0747 27.0404 71.6338 26.3599C71.4296 26.0622 71.1545 25.8203 70.833 25.6561C70.5115 25.492 70.1539 25.4108 69.793 25.4199C69.2735 25.42 68.7709 25.6038 68.374 25.9389C67.9499 26.2851 67.6564 26.7655 67.542 27.3009C67.4834 27.5112 67.4497 27.7277 67.4419 27.9459V29.5329C67.4242 30.1772 67.6521 30.8042 68.0791 31.2869C68.2849 31.5208 68.5397 31.7062 68.8257 31.8298C69.1117 31.9535 69.4215 32.0122 69.7329 32.0019C70.0953 32.0164 70.4553 31.9397 70.7803 31.7788C71.1053 31.6179 71.3847 31.3779 71.5928 31.0809C72.0675 30.3626 72.3011 29.5119 72.2598 28.6519" fill="white"/>
<path d="M85.3604 28.5739C85.4381 29.9753 84.9672 31.3518 84.0474 32.4119C83.6789 32.8172 83.2278 33.1387 82.7246 33.355C82.2214 33.5713 81.6779 33.6773 81.1304 33.6659C80.5999 33.7085 80.0677 33.6052 79.5918 33.3671C79.1159 33.1289 78.7141 32.765 78.4302 32.3149H78.3901V37.3299H76.2754V27.0649C76.2754 26.0469 76.249 25.0022 76.1963 23.9309H78.0562L78.1743 25.4399H78.2144C78.535 24.9493 78.9656 24.5405 79.4722 24.2458C79.9788 23.9511 80.5474 23.7788 81.1323 23.7425C81.7173 23.7063 82.3022 23.8072 82.8413 24.0371C83.3804 24.267 83.8586 24.6197 84.2373 25.0669C85.0228 26.0621 85.4223 27.3075 85.3623 28.5739M83.207 28.6509C83.24 27.8407 83.021 27.0404 82.5801 26.3599C82.3761 26.0622 82.1012 25.8202 81.7798 25.656C81.4584 25.4918 81.101 25.4107 80.7402 25.4199C80.2205 25.4197 79.7175 25.6036 79.3203 25.9389C78.8957 26.2847 78.6021 26.7653 78.4883 27.3009C78.4301 27.5113 78.3965 27.7278 78.3882 27.9459V29.5329C78.3709 30.1767 78.5975 30.8033 79.0229 31.2869C79.2294 31.5209 79.485 31.7063 79.7715 31.8299C80.058 31.9535 80.3684 32.0122 80.6802 32.0019C81.0425 32.0164 81.4025 31.9397 81.7275 31.7788C82.0525 31.6179 82.332 31.3779 82.54 31.0809C83.0148 30.3626 83.2484 29.5119 83.207 28.6519" fill="white"/>
<path d="M97.6016 29.749C97.6188 30.264 97.5225 30.7766 97.3198 31.2504C97.1171 31.7243 96.8126 32.1477 96.4282 32.491C95.4158 33.3144 94.1307 33.727 92.8281 33.647C91.6329 33.7034 90.4464 33.4183 89.4072 32.825L89.8975 31.062C90.8184 31.6215 91.8766 31.9134 92.9541 31.905C93.6184 31.9447 94.2764 31.754 94.8164 31.365C95.0324 31.1935 95.2048 30.9736 95.3203 30.7232C95.4358 30.4727 95.4912 30.1986 95.4814 29.923C95.4874 29.672 95.4414 29.4225 95.3472 29.1898C95.2529 28.9571 95.112 28.7462 94.9331 28.57C94.403 28.1078 93.7832 27.7601 93.1123 27.549C90.801 26.687 89.6458 25.4253 89.6465 23.764C89.6336 23.2564 89.7363 22.7526 89.9468 22.2905C90.1573 21.8285 90.4699 21.4204 90.8613 21.097C91.7756 20.3674 92.9251 19.9975 94.0933 20.057C95.1293 20.0203 96.1587 20.2355 97.0933 20.684L96.5645 22.408C95.7869 21.9945 94.9167 21.7853 94.0361 21.8C93.4077 21.7623 92.7877 21.9578 92.2944 22.349C92.1249 22.499 91.9898 22.6839 91.8984 22.891C91.8071 23.0982 91.7615 23.3226 91.7651 23.549C91.7601 23.7966 91.8124 24.042 91.9175 24.2662C92.0226 24.4904 92.1776 24.6874 92.3711 24.842C92.9529 25.2815 93.6014 25.6255 94.2915 25.861C95.2394 26.1938 96.0973 26.7415 96.7983 27.461C97.3412 28.0975 97.6264 28.9139 97.5981 29.75" fill="white"/>
<path d="M104.594 25.5187H102.263V30.1406C102.263 31.316 102.674 31.9036 103.497 31.9036C103.813 31.9098 104.128 31.8763 104.436 31.8036L104.495 33.4097C103.964 33.5829 103.408 33.6621 102.85 33.6437C102.488 33.6638 102.125 33.606 101.787 33.4742C101.45 33.3424 101.144 33.1397 100.891 32.8796C100.35 32.1394 100.099 31.2266 100.185 30.3137V25.5137H98.7958V23.9266H100.185V22.1837L102.262 21.5566V23.9266H104.593L104.594 25.5187Z" fill="white"/>
<path d="M115.111 28.6128C115.162 29.928 114.714 31.2137 113.857 32.2128C113.417 32.6939 112.876 33.0728 112.274 33.3231C111.671 33.5734 111.021 33.689 110.369 33.6618C109.745 33.6894 109.122 33.5792 108.545 33.3389C107.968 33.0987 107.451 32.7343 107.031 32.2718C106.187 31.3033 105.742 30.05 105.787 28.7658C105.734 27.4382 106.193 26.1407 107.07 25.1428C107.509 24.6707 108.046 24.3 108.643 24.0563C109.24 23.8127 109.882 23.702 110.526 23.7318C111.155 23.706 111.782 23.817 112.364 24.0571C112.945 24.2973 113.468 24.6609 113.895 25.1228C114.73 26.0869 115.165 27.3336 115.111 28.6078M112.917 28.6758C112.941 27.8849 112.745 27.103 112.35 26.4168C112.172 26.0679 111.9 25.7761 111.564 25.5747C111.228 25.3733 110.842 25.2704 110.45 25.2778C110.053 25.2668 109.66 25.3678 109.317 25.5692C108.974 25.7706 108.695 26.0643 108.511 26.4168C108.114 27.1165 107.917 27.9125 107.944 28.7168C107.921 29.5074 108.117 30.2891 108.511 30.9748C108.697 31.3205 108.973 31.6091 109.311 31.8096C109.648 32.0101 110.034 32.115 110.427 32.1129C110.819 32.1109 111.204 32.0019 111.539 31.7979C111.875 31.5939 112.148 31.3024 112.33 30.9548C112.734 30.2647 112.937 29.4759 112.916 28.6768" fill="white"/>
<path d="M121.986 25.7909C121.766 25.751 121.542 25.7313 121.318 25.732C120.983 25.7167 120.65 25.7859 120.349 25.9332C120.048 26.0805 119.788 26.3012 119.595 26.575C119.225 27.1304 119.04 27.7882 119.065 28.4549V33.45H116.952L116.972 26.9289C116.972 25.8316 116.945 24.8316 116.893 23.9289H118.734L118.812 25.75H118.872C119.071 25.156 119.439 24.6324 119.929 24.242C120.37 23.9117 120.906 23.7328 121.458 23.732C121.635 23.7312 121.812 23.7442 121.987 23.771L121.986 25.7909Z" fill="white"/>
<path d="M131.443 28.2399C131.448 28.5613 131.422 28.8826 131.365 29.1989H125.021C125.007 29.6038 125.082 30.0068 125.241 30.3794C125.4 30.752 125.639 31.0851 125.941 31.3549C126.531 31.8174 127.267 32.0536 128.016 32.0209C128.892 32.0325 129.763 31.8799 130.583 31.5709L130.914 33.0389C129.902 33.4526 128.815 33.6528 127.723 33.6269C127.084 33.6624 126.446 33.5652 125.848 33.3415C125.249 33.1177 124.703 32.7722 124.245 32.3269C123.813 31.8566 123.478 31.3049 123.261 30.704C123.044 30.1031 122.949 29.465 122.982 28.8269C122.935 27.5304 123.352 26.2597 124.158 25.2429C124.554 24.7452 125.061 24.3476 125.64 24.0823C126.218 23.817 126.85 23.6915 127.486 23.7159C128.092 23.6822 128.697 23.805 129.243 24.0723C129.789 24.3397 130.257 24.7428 130.602 25.2429C131.185 26.1323 131.478 27.1803 131.441 28.2429M129.424 27.6939C129.451 27.1231 129.308 26.557 129.013 26.0679C128.838 25.7818 128.589 25.5486 128.292 25.3933C127.995 25.2379 127.661 25.1662 127.327 25.1859C126.997 25.1801 126.671 25.2557 126.377 25.406C126.083 25.5564 125.831 25.7769 125.643 26.0479C125.283 26.5259 125.066 27.0964 125.018 27.6929H129.423L129.424 27.6939Z" fill="white"/>
<path d="M58.9249 12.1277C58.9602 12.618 58.8841 13.1099 58.7023 13.5666C58.5204 14.0233 58.2378 14.4329 57.8751 14.7647C57.0808 15.3559 56.102 15.6455 55.1139 15.5817C54.6058 15.5862 54.0979 15.5605 53.5929 15.5047V9.12568C54.1853 9.03288 54.7843 8.98774 55.3839 8.99069C56.3012 8.92384 57.212 9.1866 57.9528 9.73168C58.2835 10.0338 58.5425 10.4062 58.7106 10.8215C58.8786 11.2369 58.9516 11.6845 58.924 12.1317M57.8239 12.1607C57.862 11.8423 57.827 11.5194 57.7218 11.2165C57.6166 10.9136 57.4441 10.6386 57.2169 10.4123C56.9897 10.1861 56.7141 10.0145 56.4108 9.91062C56.1074 9.80673 55.7842 9.77323 55.4659 9.81268C55.1854 9.80828 54.9053 9.83071 54.629 9.87968V14.7297C54.8615 14.7543 55.095 14.764 55.3287 14.7587C55.6649 14.7801 56.0021 14.7322 56.319 14.6179C56.6358 14.5037 56.9258 14.3256 57.171 14.0947C57.4016 13.8311 57.5779 13.5246 57.6896 13.1927C57.8013 12.8608 57.8462 12.51 57.8219 12.1607" fill="#E5E5E5"/>
<path d="M64.7375 13.1469C64.763 13.7938 64.5427 14.4265 64.1213 14.9179C63.9048 15.1542 63.6393 15.3403 63.3434 15.4633C63.0475 15.5863 62.7285 15.6432 62.4084 15.6299C62.1015 15.6437 61.7955 15.5896 61.5119 15.4715C61.2282 15.3535 60.9738 15.1744 60.7673 14.9469C60.353 14.471 60.1351 13.8555 60.1574 13.2249C60.1308 12.5727 60.3563 11.9352 60.7873 11.4449C61.0034 11.2131 61.2676 11.0312 61.5612 10.9117C61.8548 10.7922 62.1709 10.738 62.4875 10.7529C62.7965 10.7403 63.1044 10.7948 63.3903 10.9127C63.6762 11.0306 63.933 11.2091 64.1432 11.4359C64.5531 11.9098 64.7677 12.5218 64.7433 13.1479M63.6642 13.1819C63.675 12.7933 63.5787 12.4092 63.3854 12.0719C63.2981 11.9006 63.1645 11.7573 62.9997 11.6583C62.8349 11.5593 62.6455 11.5086 62.4533 11.5119C62.2578 11.5064 62.0649 11.556 61.8962 11.655C61.7275 11.754 61.5897 11.8985 61.4992 12.0719C61.3042 12.4154 61.2082 12.8061 61.2214 13.2009C61.2102 13.5894 61.3062 13.9735 61.4992 14.3109C61.5896 14.4819 61.7259 14.6246 61.8923 14.7232C62.0587 14.8219 62.2491 14.8726 62.4425 14.8699C62.6356 14.8713 62.8251 14.8188 62.9899 14.7183C63.1547 14.6177 63.2885 14.4732 63.3757 14.3009C63.5747 13.9623 63.6744 13.5746 63.6642 13.1819Z" fill="#E5E5E5"/>
<path d="M72.5287 10.8477L71.0658 15.5237H70.1136L69.5077 13.4926C69.357 12.9956 69.2316 12.4913 69.1317 11.9817H69.1127C69.0229 12.4935 68.8973 12.9984 68.7367 13.4926L68.0927 15.5237H67.1298L65.7538 10.8477H66.8217L67.351 13.0706C67.479 13.5966 67.5845 14.0966 67.6678 14.5706H67.6869C67.7642 14.18 67.8931 13.683 68.0731 13.0797L68.7367 10.8477H69.5839L70.2201 13.0316C70.3741 13.565 70.4991 14.0783 70.5951 14.5717H70.6239C70.7021 14.053 70.8078 13.539 70.9408 13.0316L71.5077 10.8477H72.5287Z" fill="#E5E5E5"/>
<path d="M77.9185 15.5237H76.8784V12.8458C76.8784 12.0204 76.5645 11.6077 75.9365 11.6077C75.7937 11.6035 75.6516 11.6319 75.5215 11.6908C75.3913 11.7497 75.2766 11.8376 75.1855 11.9477C74.9954 12.1706 74.8926 12.4548 74.8965 12.7477V15.5217H73.8564V12.1827C73.8564 11.7721 73.8437 11.3261 73.8184 10.8447H74.7324L74.7803 11.5757H74.8096C74.9363 11.3435 75.1224 11.1489 75.3486 11.0117C75.6314 10.8367 75.958 10.7455 76.2905 10.7487C76.4911 10.7426 76.6905 10.777 76.8774 10.8499C77.0644 10.9227 77.2349 11.0326 77.3784 11.1728C77.5696 11.3802 77.7164 11.6248 77.8091 11.8913C77.9018 12.1577 77.9386 12.4404 77.9175 12.7217L77.9185 15.5237Z" fill="#E5E5E5"/>
<path d="M80.7859 8.70166H79.7469V15.5237H80.7859V8.70166Z" fill="#E5E5E5"/>
<path d="M86.9063 13.1469C86.9318 13.7939 86.7116 14.4265 86.2901 14.9179C86.0736 15.1542 85.8081 15.3403 85.5122 15.4633C85.2164 15.5863 84.8973 15.6432 84.5772 15.6299C84.2703 15.6439 83.9639 15.5899 83.6802 15.4719C83.3965 15.3538 83.1425 15.1746 82.9361 14.9469C82.5218 14.471 82.3039 13.8555 82.3262 13.2249C82.2996 12.5727 82.5251 11.9352 82.9561 11.4449C83.1722 11.2131 83.4364 11.0311 83.73 10.9116C84.0236 10.7921 84.3397 10.7379 84.6563 10.7529C84.9653 10.7404 85.2732 10.7949 85.5591 10.9128C85.845 11.0307 86.1018 11.2092 86.3121 11.4359C86.7221 11.9097 86.9367 12.5218 86.9122 13.1479M85.8331 13.1819C85.8438 12.7933 85.7475 12.4093 85.5542 12.0719C85.467 11.9006 85.3333 11.7572 85.1685 11.6582C85.0037 11.5591 84.8143 11.5085 84.6221 11.5119C84.4267 11.5064 84.2335 11.556 84.065 11.655C83.8964 11.754 83.7592 11.8985 83.669 12.0719C83.4737 12.4154 83.3773 12.8061 83.3902 13.2009C83.3794 13.5895 83.4757 13.9736 83.669 14.3109C83.7593 14.482 83.8951 14.6248 84.0616 14.7234C84.228 14.8221 84.4189 14.8728 84.6123 14.8699C84.8053 14.8713 84.9946 14.8187 85.1592 14.7182C85.3239 14.6177 85.457 14.4732 85.544 14.3009C85.7434 13.9625 85.8436 13.5746 85.8331 13.1819Z" fill="#E5E5E5"/>
<path d="M91.9376 15.5236H91.0044L90.9263 14.9846H90.8975C90.7406 15.1963 90.5338 15.3659 90.2955 15.4784C90.0572 15.591 89.7945 15.6429 89.5313 15.6296C89.3337 15.6378 89.1365 15.6042 88.9527 15.5312C88.7689 15.4581 88.6025 15.3472 88.4644 15.2056C88.3437 15.0788 88.2494 14.9295 88.1866 14.7661C88.1238 14.6027 88.0939 14.4285 88.0987 14.2536C88.0888 13.9911 88.1502 13.7309 88.2764 13.5006C88.4027 13.2702 88.5889 13.0784 88.8155 12.9456C89.4327 12.6109 90.132 12.4577 90.8326 12.5036V12.4166C90.8326 11.8006 90.5087 11.4926 89.8614 11.4926C89.4297 11.4843 89.0056 11.6047 88.6426 11.8386L88.4317 11.1566C88.9172 10.8764 89.4711 10.7378 90.0313 10.7566C91.2533 10.7566 91.8654 11.4012 91.8668 12.6906V14.4126C91.8607 14.7854 91.883 15.1581 91.9336 15.5276M90.8545 13.9206V13.1996C89.7079 13.1796 89.1343 13.4936 89.1343 14.1416C89.1262 14.2421 89.1398 14.3432 89.1744 14.4379C89.2089 14.5327 89.2636 14.6189 89.3345 14.6906C89.474 14.8146 89.6558 14.8801 89.8423 14.8736C90.0723 14.8731 90.2959 14.7973 90.4786 14.6576C90.5966 14.5749 90.6927 14.4646 90.7584 14.3363C90.8241 14.208 90.8574 14.0657 90.8555 13.9216" fill="#E5E5E5"/>
<path d="M97.8447 15.5237H96.9224L96.8745 14.7727H96.8457C96.7084 15.0478 96.4926 15.2761 96.2256 15.4286C95.9586 15.5812 95.6525 15.6511 95.3457 15.6297C95.0772 15.6331 94.811 15.5751 94.5684 15.46C94.3257 15.3449 94.1125 15.1758 93.9453 14.9657C93.5579 14.4777 93.3601 13.8662 93.3877 13.2437C93.3567 12.5773 93.5724 11.9229 93.9937 11.4057C94.1712 11.1971 94.3927 11.0303 94.6421 10.9171C94.8915 10.8039 95.1626 10.7471 95.4365 10.7507C95.6932 10.7249 95.9522 10.7705 96.1846 10.8826C96.417 10.9946 96.6137 11.1687 96.7534 11.3857H96.7734V8.70166H97.8145V14.2677C97.8145 14.723 97.8269 15.143 97.8516 15.5277M96.7744 13.5557V12.7757C96.7766 12.6659 96.7671 12.5563 96.7456 12.4487C96.6901 12.2042 96.5585 11.9836 96.3696 11.8187C96.1767 11.6485 95.9266 11.5575 95.6694 11.5637C95.4904 11.5577 95.3127 11.5969 95.1528 11.6776C94.9929 11.7583 94.8559 11.878 94.7544 12.0257C94.5208 12.3747 94.4042 12.789 94.4214 13.2087C94.4031 13.6088 94.5157 14.004 94.7417 14.3347C94.8429 14.481 94.979 14.5998 95.1377 14.6803C95.2964 14.7608 95.4725 14.8005 95.6504 14.7957C95.8079 14.8007 95.9648 14.7685 96.1074 14.7016C96.2501 14.6347 96.3749 14.535 96.4717 14.4107C96.6727 14.1714 96.7791 13.867 96.7715 13.5547" fill="#E5E5E5"/>
<path d="M106.734 13.1469C106.759 13.7938 106.539 14.4265 106.117 14.9179C105.901 15.1542 105.635 15.3403 105.339 15.4633C105.044 15.5863 104.725 15.6431 104.404 15.6299C104.098 15.6435 103.792 15.5894 103.508 15.4713C103.224 15.3533 102.97 15.1742 102.763 14.9469C102.349 14.471 102.131 13.8555 102.153 13.2249C102.127 12.5727 102.352 11.9353 102.783 11.4449C103 11.2131 103.264 11.0312 103.557 10.9117C103.851 10.7922 104.167 10.738 104.484 10.7529C104.792 10.7403 105.1 10.7948 105.385 10.9127C105.671 11.0307 105.927 11.2092 106.137 11.4359C106.547 11.9097 106.762 12.5217 106.737 13.1479M105.66 13.1819C105.671 12.7933 105.575 12.4092 105.381 12.0719C105.294 11.9005 105.16 11.7572 104.995 11.6582C104.83 11.5592 104.641 11.5085 104.448 11.5119C104.253 11.5066 104.06 11.5563 103.891 11.6553C103.723 11.7543 103.585 11.8986 103.494 12.0719C103.299 12.4153 103.203 12.806 103.215 13.2009C103.205 13.5895 103.301 13.9736 103.494 14.3109C103.585 14.4819 103.721 14.6246 103.887 14.7232C104.054 14.8219 104.244 14.8726 104.438 14.8699C104.631 14.8713 104.82 14.8187 104.985 14.7182C105.15 14.6177 105.284 14.4732 105.371 14.3009C105.57 13.962 105.67 13.5745 105.66 13.1819Z" fill="#E5E5E5"/>
<path d="M112.325 15.5237H111.286V12.8457C111.286 12.0204 110.972 11.6077 110.343 11.6077C110.201 11.6034 110.059 11.6318 109.929 11.6907C109.799 11.7496 109.684 11.8376 109.593 11.9477C109.402 12.1702 109.3 12.4547 109.304 12.7477V15.5217H108.263V12.1827C108.263 11.772 108.251 11.3261 108.227 10.8447H109.139L109.188 11.5757H109.217C109.345 11.3438 109.53 11.1493 109.756 11.0117C110.04 10.8367 110.366 10.7455 110.699 10.7487C110.9 10.7427 111.099 10.7771 111.286 10.85C111.473 10.9228 111.643 11.0326 111.786 11.1727C111.978 11.38 112.125 11.6245 112.217 11.8911C112.31 12.1576 112.347 12.4403 112.325 12.7217V15.5237Z" fill="#E5E5E5"/>
<path d="M119.322 11.627H118.177V13.899C118.177 14.476 118.377 14.765 118.783 14.765C118.939 14.7684 119.095 14.752 119.246 14.716L119.273 15.505C119.013 15.5907 118.739 15.63 118.465 15.621C118.287 15.6308 118.11 15.6025 117.944 15.5378C117.778 15.4731 117.628 15.3736 117.504 15.246C117.237 14.8825 117.114 14.4337 117.157 13.985V11.627H116.473V10.852H117.157V9.99498L118.176 9.68799V10.852H119.321V11.632L119.322 11.627Z" fill="#E5E5E5"/>
<path d="M124.826 15.5236H123.785V12.8686C123.785 12.0306 123.471 11.6113 122.844 11.6106C122.62 11.6026 122.401 11.6703 122.221 11.8026C122.041 11.9349 121.911 12.1241 121.852 12.3396C121.817 12.4612 121.801 12.5872 121.803 12.7136V15.5256H120.764V8.70459H121.803V11.5226H121.822C121.966 11.281 122.171 11.0822 122.417 10.9469C122.664 10.8116 122.942 10.7449 123.223 10.7536C123.421 10.7475 123.617 10.782 123.801 10.8549C123.985 10.9278 124.153 11.0376 124.292 11.1776C124.481 11.3905 124.624 11.6389 124.715 11.9082C124.806 12.1775 124.841 12.4622 124.82 12.7456V15.5266" fill="#E5E5E5"/>
<path d="M130.5 12.9649C130.502 13.1228 130.489 13.2805 130.461 13.4359H127.343C127.336 13.6345 127.373 13.8321 127.451 14.0148C127.529 14.1976 127.646 14.3611 127.794 14.4939C128.085 14.721 128.447 14.837 128.815 14.8209C129.246 14.8267 129.673 14.7517 130.076 14.5999L130.239 15.3219C129.741 15.5249 129.207 15.6233 128.67 15.6109C128.357 15.6283 128.043 15.5803 127.749 15.4702C127.455 15.36 127.187 15.19 126.962 14.9709C126.75 14.7403 126.585 14.4697 126.479 14.1749C126.372 13.8801 126.326 13.5669 126.342 13.2539C126.319 12.6169 126.523 11.9925 126.919 11.4929C127.113 11.2482 127.363 11.0527 127.647 10.9224C127.931 10.7921 128.242 10.7306 128.554 10.7429C128.852 10.7264 129.148 10.7867 129.416 10.918C129.684 11.0494 129.913 11.2473 130.083 11.4929C130.372 11.9277 130.518 12.4421 130.5 12.9639M129.508 12.6949C129.523 12.4142 129.453 12.1354 129.308 11.8949C129.222 11.7544 129.1 11.6399 128.954 11.5634C128.809 11.487 128.645 11.4515 128.481 11.4609C128.318 11.4581 128.158 11.4954 128.014 11.5693C127.869 11.6433 127.746 11.7517 127.653 11.8849C127.477 12.1202 127.37 12.4001 127.345 12.6929L129.508 12.6949Z" fill="#E5E5E5"/>
</g>
<defs>
<clipPath id="clip0_1_526">
<rect width="154.92" height="44.53" fill="white" transform="translate(0.919922)"/>
</clipPath>
</defs>
</svg>
