<svg width="49" height="44" viewBox="0 0 49 44" fill="none" xmlns="http://www.w3.org/2000/svg">
<path d="M20.0017 3.90367C24.6997 -0.78108 31.9596 -0.625554 36.4847 4.41209C41.0101 9.44973 41.1655 17.4755 36.9567 22.7101L19.9995 41.5777L3.04272 22.7101C-1.16589 17.4755 -1.00857 9.43705 3.51467 4.41209C8.04304 -0.618555 15.2902 -0.788034 20.0017 3.90367Z" fill="#EA1C00"/>
<path d="M33.5013 13.8347C37.1421 10.0837 42.7685 10.2082 46.2755 14.2418C49.7826 18.2754 49.9031 24.7016 46.6413 28.8929L33.4996 44L20.3581 28.8929C17.0964 24.7016 17.2184 18.2652 20.7239 14.2418C24.2333 10.2138 29.8498 10.0781 33.5013 13.8347Z" fill="#EF6801"/>
</svg>
