<svg width="99" height="62" viewBox="0 0 99 62" fill="none" xmlns="http://www.w3.org/2000/svg">
<path d="M73.285 0.829384L56.0492 7.01505L45.4963 1.54448L20.6402 10.4833L19.823 20.03L15.6162 21.5496L13.9575 18.9573L3.33227 22.7653L5.01501 25.3576L2.61114 26.2157C1.51503 26.6344 0.67699 27.3501 0.269919 28.2151C-0.137152 29.08 -0.082114 30.0282 0.423682 30.8639L19.294 59.9687C19.8568 60.7795 20.8149 61.3996 21.9724 61.7021C23.1299 62.0045 24.3992 61.9664 25.5201 61.5956L96.242 36.2272C97.354 35.8261 98.2063 35.1132 98.612 34.245C99.0176 33.3768 98.9434 32.4243 98.4054 31.5969L79.5351 2.492C79.2746 2.07559 78.9056 1.7018 78.4493 1.39232C77.9931 1.08284 77.4588 0.843841 76.8774 0.689169C76.2959 0.534496 75.6789 0.467272 75.0623 0.49134C74.4456 0.515409 73.8415 0.630298 73.285 0.829384ZM22.2028 11.2342L45.328 2.93894L54.3666 7.62288L21.5055 19.4043L22.2028 11.2342ZM5.49582 23.3016L13.1882 20.5485L14.1497 22.0323L6.45743 24.7855L5.49582 23.3016ZM3.2843 27.2705L5.68817 26.4123L16.3132 22.6044L19.6787 21.3887L57.5397 7.81956L73.9581 1.9199C74.6853 1.66119 75.5206 1.62692 76.2817 1.82453C77.0428 2.02214 77.6679 2.43563 78.0206 2.97473L91.5304 23.8022L69.0783 31.8472C69.2291 29.3128 68.4929 26.7927 66.9419 24.5333C65.3909 22.2739 63.078 20.3524 60.2294 18.9569C57.3808 17.5613 54.0941 16.7395 50.6905 16.5715C47.2869 16.4036 43.883 16.8954 40.8115 17.9989C37.74 19.1024 35.1061 20.7797 33.1673 22.867C31.2286 24.9542 30.0513 27.3799 29.7507 29.9069C29.45 32.4338 30.0363 34.9756 31.452 37.2836C32.8678 39.5916 35.0647 41.5869 37.8279 43.0744L15.3757 51.1193L1.89001 30.2918C1.54046 29.7532 1.49088 29.1337 1.75194 28.5679C2.013 28.0022 2.56365 27.536 3.2843 27.2705ZM57.2511 43.3604C54.0255 44.5132 50.4128 44.929 46.8695 44.5553C43.3261 44.1816 40.0112 43.0352 37.3438 41.2608C34.6763 39.4865 32.7759 37.164 31.8827 34.5867C30.9895 32.0093 31.1437 29.293 32.3256 26.7808C33.5076 24.2686 35.6643 22.0733 38.5232 20.4724C41.3822 18.8715 44.8151 17.9368 48.3882 17.7864C51.9612 17.636 55.514 18.2766 58.5976 19.6274C61.6812 20.9782 64.1573 22.9785 65.7128 25.3755C67.7801 28.5914 68.0504 32.2854 66.4646 35.6492C64.8788 39.013 61.566 41.7727 57.2511 43.3246V43.3604ZM95.4968 35.1546L24.7988 60.5051C24.0707 60.759 23.2378 60.7908 22.4784 60.5936C21.7191 60.3965 21.0939 59.9861 20.7364 59.4503L16.0729 52.2992L39.3904 43.9325C42.1845 45.1545 45.3404 45.846 48.579 45.9457C51.8177 46.0453 55.0396 45.5502 57.9599 44.5041C60.8802 43.4579 63.4091 41.8929 65.3231 39.9473C67.2371 38.0017 68.4773 35.7355 68.9341 33.3489L92.2516 24.9822L96.915 32.1332C97.2543 32.6696 97.2958 33.2837 97.0303 33.8426C96.7648 34.4015 96.2138 34.86 95.4968 35.1188V35.1546Z" fill="#9B9B9B" fill-opacity="0.2"/>
<path d="M43.2364 21.6924C40.7108 22.5995 38.6034 24.0432 37.1808 25.8409C35.7583 27.6387 35.0843 29.7097 35.2443 31.7923C35.4042 33.8748 36.3909 35.8753 38.0795 37.5409C39.7681 39.2064 42.0828 40.4622 44.7309 41.1495C47.3791 41.8368 50.2418 41.9247 52.9571 41.4022C55.6725 40.8796 58.1184 39.7701 59.9859 38.2137C61.8534 36.6574 63.0587 34.7242 63.449 32.6586C63.8393 30.593 63.3974 28.4876 62.179 26.6088C60.5347 24.0949 57.6198 22.1669 54.0707 21.2458C50.5217 20.3247 46.6269 20.4852 43.2364 21.6924ZM54.847 39.5701C52.6078 40.3699 50.1001 40.6585 47.6406 40.3993C45.181 40.1401 42.8798 39.3449 41.0274 38.1139C39.175 36.8829 37.8545 35.2715 37.2325 33.4829C36.6105 31.6943 36.715 29.8087 37.5327 28.0642C38.3503 26.3197 39.8445 24.7944 41.8268 23.6809C43.809 22.5674 46.1902 21.9155 48.6701 21.8077C51.15 21.6998 53.6173 22.1407 55.7605 23.0747C57.9038 24.0088 59.6269 25.394 60.7125 27.0557C61.4436 28.1651 61.8719 29.3713 61.9725 30.6045C62.0731 31.8377 61.8441 33.0734 61.2987 34.2404C60.7533 35.4074 59.9024 36.4824 58.795 37.4034C57.6876 38.3243 56.3457 39.0729 54.847 39.6059V39.5701Z" fill="#9B9B9B" fill-opacity="0.2"/>
<path d="M22.2992 24.625L7.87598 29.7916L11.7702 35.8164L26.1935 30.6497L22.2992 24.625ZM24.0301 30.0776L12.5636 34.2074L10.1597 30.3637L21.6501 26.2518L24.0301 30.0776Z" fill="#9B9B9B" fill-opacity="0.2"/>
<path d="M46.2177 25.1071C45.928 25.2084 45.6685 25.3517 45.4543 25.5286C45.2401 25.7055 45.0755 25.9124 44.9703 26.1372C44.865 26.362 44.8213 26.6002 44.8415 26.8377C44.8616 27.0753 44.9454 27.3075 45.0878 27.5206L45.232 27.771C45.3725 27.9858 45.5686 28.1779 45.8089 28.3364C46.0493 28.4949 46.3292 28.6166 46.6328 28.6946C46.9364 28.7727 47.2576 28.8055 47.5782 28.7911C47.8989 28.7768 48.2126 28.7157 48.5014 28.6112C48.7903 28.5067 49.0486 28.3609 49.2617 28.1822C49.4748 28.0035 49.6385 27.7953 49.7434 27.5695C49.8483 27.3438 49.8923 27.1048 49.8731 26.8664C49.8539 26.6279 49.7716 26.3946 49.6312 26.1798L49.4869 25.9474C49.3509 25.7297 49.1573 25.5346 48.9177 25.3737C48.678 25.2129 48.3973 25.0895 48.0922 25.0111C47.7871 24.9327 47.4638 24.9008 47.1417 24.9173C46.8197 24.9338 46.5055 24.9984 46.2177 25.1071Z" fill="#9B9B9B" fill-opacity="0.2"/>
<path d="M54.4625 28.2001C54.1698 28.3012 53.9075 28.4452 53.6912 28.6234C53.4749 28.8017 53.3091 29.0105 53.2037 29.2374C53.0982 29.4643 53.0553 29.7047 53.0775 29.9442C53.0997 30.1837 53.1865 30.4174 53.3328 30.6314L53.5009 30.8638C53.7814 31.2953 54.281 31.6263 54.8896 31.7838C55.4982 31.9414 56.1661 31.9127 56.7462 31.7041C57.3264 31.4955 57.7714 31.124 57.9832 30.6714C58.1951 30.2188 58.1565 29.7221 57.876 29.2906L57.7318 29.0582C57.5979 28.839 57.406 28.642 57.1673 28.4793C56.9287 28.3166 56.6482 28.1914 56.3429 28.1112C56.0376 28.0311 55.7137 27.9977 55.3905 28.0129C55.0674 28.0282 54.7518 28.0919 54.4625 28.2001Z" fill="#9B9B9B" fill-opacity="0.2"/>
</svg>
