<svg width="84" height="24" viewBox="0 0 84 24" fill="none" xmlns="http://www.w3.org/2000/svg">
<path d="M68 24.005C64.8355 24.005 61.7421 23.3071 59.1109 21.9996C56.4797 20.6921 54.4289 18.8337 53.2179 16.6594C52.0069 14.4851 51.6901 12.0926 52.3074 9.78436C52.9248 7.47613 54.4487 5.35589 56.6863 3.69175C59.6869 1.46021 63.7565 0.206543 68 0.206543C72.2435 0.206543 76.3131 1.46021 79.3137 3.69175C82.3143 5.92329 84 8.94991 84 12.1058C84 15.2617 82.3143 18.2883 79.3137 20.5198C77.8314 21.6282 76.0683 22.507 74.1263 23.1052C72.1843 23.7034 70.102 24.0093 68 24.005ZM68 1.79313C60.354 1.79313 54.1334 6.4194 54.1334 12.1058C54.1334 17.7922 60.354 22.4184 68 22.4184C75.6461 22.4184 81.8666 17.7922 81.8666 12.1058C81.8666 6.4194 75.6461 1.79313 68 1.79313Z" fill="#474242"/>
<path d="M66.0872 18.2196L64.5788 17.0978L71.2911 12.1057L64.5788 7.11365L66.0872 5.99185L74.3081 12.1057L66.0872 18.2196Z" fill="#474242"/>
<path d="M16 24.005C19.1645 24.005 22.2579 23.3071 24.8891 21.9996C27.5203 20.6921 29.5711 18.8337 30.7821 16.6594C31.9931 14.4851 32.3099 12.0926 31.6926 9.78436C31.0752 7.47613 29.5513 5.35589 27.3137 3.69175C24.3131 1.46021 20.2435 0.206543 16 0.206543C11.7565 0.206543 7.68687 1.46021 4.68629 3.69175C1.68571 5.92329 3.8147e-06 8.94991 3.8147e-06 12.1058C3.8147e-06 15.2617 1.68571 18.2883 4.68629 20.5198C6.16857 21.6282 7.93174 22.507 9.87374 23.1052C11.8157 23.7034 13.898 24.0093 16 24.005ZM16 1.79313C23.646 1.79313 29.8666 6.4194 29.8666 12.1058C29.8666 17.7922 23.646 22.4184 16 22.4184C8.35395 22.4184 2.13337 17.7922 2.13337 12.1058C2.13337 6.4194 8.35395 1.79313 16 1.79313Z" fill="#C7C7C7"/>
<path d="M17.9128 18.2196L19.4212 17.0978L12.7089 12.1057L19.4212 7.11365L17.9128 5.99185L9.6919 12.1057L17.9128 18.2196Z" fill="#C7C7C7"/>
</svg>
