<svg width="156" height="31" viewBox="0 0 156 31" fill="none" xmlns="http://www.w3.org/2000/svg">
<path d="M0.588226 0.382324H29.9156V30.4656H0.588226V0.382324Z" fill="#FFD600"/>
<path d="M31.8704 0.382324H61.1978V30.4656H31.8704V0.382324Z" fill="#FFD600"/>
<path d="M63.1526 0.382324H92.4799V30.4656H63.1526V0.382324Z" fill="#FFD600"/>
<path d="M94.4347 0.382324H123.762V30.4656H94.4347V0.382324Z" fill="#FFD600"/>
<path d="M125.717 0.382324H155.044V30.4656H125.717V0.382324Z" fill="#FFD600"/>
<path d="M15.5339 19.8961L19.0077 18.9813L20.4591 23.6296L15.5339 19.8961ZM23.5284 13.8878H17.4136L15.5339 7.9043L13.6543 13.8878H7.53952L12.4885 17.5967L10.6088 23.5802L15.5577 19.8714L18.6032 17.5967L23.5284 13.8878Z" fill="#EA1C00"/>
<path d="M46.8161 19.8961L50.2899 18.9813L51.7412 23.6296L46.8161 19.8961ZM54.8105 13.8878H48.6958L46.8161 7.9043L44.9365 13.8878H38.8217L43.7706 17.5967L41.891 23.5802L46.8399 19.8714L49.8854 17.5967L54.8105 13.8878Z" fill="#EA1C00"/>
<path d="M78.101 19.8961L81.5748 18.9813L83.0262 23.6296L78.101 19.8961ZM86.0954 13.8878H79.9807L78.101 7.9043L76.2214 13.8878H70.1066L75.0555 17.5967L73.1759 23.5802L78.1248 19.8714L81.1703 17.5967L86.0954 13.8878Z" fill="#EA1C00"/>
<path d="M109.383 19.8961L112.857 18.9813L114.308 23.6296L109.383 19.8961ZM117.378 13.8878H111.263L109.383 7.9043L107.504 13.8878H101.389L106.338 17.5967L104.458 23.5802L109.407 19.8714L112.452 17.5967L117.378 13.8878Z" fill="#EA1C00"/>
<path d="M140.665 19.8961L144.139 18.9813L145.591 23.6296L140.665 19.8961ZM148.66 13.8878H142.545L140.665 7.9043L138.786 13.8878H132.671L137.62 17.5967L135.74 23.5802L140.689 19.8714L143.735 17.5967L148.66 13.8878Z" fill="#EA1C00"/>
</svg>
